<svg xmlns="http://www.w3.org/2000/svg" viewBox="0 0 2000 2000"><title>TFC-Logo</title><path d="M768.2,1858.3l17.6-72.6,45.9,11.2-1.7,7-37.6-9.2-6.1,25.2,35.5,8.7-1.7,7-35.5-8.7-6.4,26.4,37.6,9.1-1.7,7Z"/><path d="M829.7,1863.9l4.4-6a38.9,38.9,0,0,0,10.1,8.4,41.6,41.6,0,0,0,12.9,4.1c5.9,1,10.7.6,14.3-1.2a11.3,11.3,0,0,0,6.3-8.9,8.2,8.2,0,0,0-1.3-6.4,17.7,17.7,0,0,0-5.4-4.6,106.6,106.6,0,0,0-9.7-4.5,88.8,88.8,0,0,1-13.4-6.5,22.4,22.4,0,0,1-7.9-7.7c-1.8-3.1-2.3-6.8-1.6-11.2a19.9,19.9,0,0,1,5.1-10.6,21.4,21.4,0,0,1,10.6-6,35.5,35.5,0,0,1,14.6-.3,42.3,42.3,0,0,1,13.9,4.7,31.9,31.9,0,0,1,10.1,8.7l-4.3,6.1a38,38,0,0,0-9.5-8.3,34.9,34.9,0,0,0-11.4-3.9c-5.7-.9-10.4-.5-14,1.4a12.1,12.1,0,0,0-6.5,9.3,9.7,9.7,0,0,0,2.9,9.1c2.6,2.3,6.6,4.6,12.2,6.9s10.8,4.8,14.3,6.7a21.5,21.5,0,0,1,8,7.2c2,3,2.7,6.6,2,11a19.3,19.3,0,0,1-5.1,10.4,20.9,20.9,0,0,1-10.7,5.7,36.5,36.5,0,0,1-14.8.2Q838.6,1874.9,829.7,1863.9Z"/><path d="M921.2,1885.1l5.6-67-25.9-2.2.6-7.4,60.6,5.1-.6,7.4-26-2.2-5.5,67Z"/><path d="M958.8,1876.8l10.8.4-.4,10.8-10.8-.4Z"/><path d="M1063.6,1879.4l.3,7.3-48,2-.3-6.6,24.9-29.8a48.5,48.5,0,0,0,7.2-11,19.6,19.6,0,0,0,2-9.6c-.1-4.1-1.5-7.1-4-9.2s-5.9-3.1-10.3-2.9c-7.2.3-14.1,3.5-20.8,9.5l-3.5-6.6a31.7,31.7,0,0,1,10.9-7.1,37.3,37.3,0,0,1,13.3-3.1c6.9-.3,12.4,1.3,16.5,4.6s6.3,8,6.6,14a27.1,27.1,0,0,1-2.4,12.5,61.2,61.2,0,0,1-9,13.7l-20.2,23.8Z"/><path d="M1082.8,1876.1c-5.2-6-8.5-15.1-9.9-27.5s-.3-22.1,3.4-29,9.8-10.9,18.2-11.9,15.4,1.5,20.5,7.4,8.4,15.1,9.9,27.5.3,22.1-3.4,29-9.8,11-18.3,11.9S1087.9,1882,1082.8,1876.1Zm31.8-8.8q3.3-8,1.5-23.7c-1.2-10.6-3.4-18.2-6.8-22.7s-8-6.5-13.9-5.9-10,3.7-12.2,8.9-2.8,13.1-1.6,23.6,3.5,18.1,6.9,22.8,8,6.6,13.9,6S1112.4,1872.6,1114.6,1867.3Z"/><path d="M1169.5,1865.1l16.2-3,1.3,7.2-40.8,7.6-1.3-7.2,16.1-3-10.3-55.6-11.4,10.5-5.2-5.8,17-15.8,6.2-1.1Z"/><path d="M1182.4,1793.9l47.8-12.4,1.6,6.3-16.7,74.8-9.1,2.3,16.8-73.9-38.5,10Z"/><path d="M880.2,1127.8v-98.6H842.3v-17.5h97v17.5H901.4v98.6Z"/><path d="M1034.2,1011.7h20.7v116.1h-20.7v-50.4H974.7v50.4H953.8V1011.7h20.9v48.6h59.5Z"/><path d="M1080,1127.8V1011.7h77.7v16.8h-57v32h53.7v16.6h-53.7V1111h57v16.8Z"/><path d="M244,1392V1167.6H391v32.8H284.4v61.1H384.7v32.8H284.4V1392Z"/><path d="M463.2,1380.8c-16.1-9.3-28.4-22.7-37.1-40.1S413,1303,413,1279.6s4.3-43.6,12.9-60.9a93.3,93.3,0,0,1,37.1-40q24.2-14,57-14c21.8,0,40.8,4.7,56.8,14s28.3,22.7,36.9,40,12.9,37.6,12.9,60.9-4.4,43.7-13.1,61.1-21,30.8-37,40.1-34.9,14-56.5,14S479.2,1390.2,463.2,1380.8Zm105-40.1c11.5-14.2,17.3-34.5,17.3-61.1s-5.8-46.8-17.3-60.9-27.7-21.2-48.2-21.2-37,7.1-48.6,21.2-17.3,34.4-17.3,60.9,5.8,46.9,17.3,61.1,27.8,21.4,48.6,21.4S556.6,1355,568.2,1340.7Z"/><path d="M853.2,1392H808.6l-38.5-71.6c-3.6-6.8-8-11.6-13.3-14.4s-12-4.1-20.1-4.1H705.5V1392H665.1V1167.6h99.3c25.5,0,44.8,5.7,58.1,17s19.9,27.8,19.9,49.2c0,17.2-4.8,31.3-14.5,42.5s-23.3,18.4-40.9,21.8c11.9,3.2,21.4,11.6,28.6,25.1Zm-60.5-130.4c7.2-5.8,10.9-14.8,10.9-26.8s-3.7-21.3-10.9-26.9-18.5-8.5-34-8.5H705.2v71h53.5C774.2,1270.4,785.5,1267.5,792.7,1261.6Z"/><path d="M1069.4,1167.6h32.1V1392h-36.3V1243.7l-59.2,112H978.7l-59.5-110.4.3,146.7H883.2V1167.6h32.5l77,146.7Z"/><path d="M1171.8,1371c-15.9-15.9-23.9-39.2-23.9-69.7V1167.6H1188v135.9c0,19.3,4.6,33.9,13.7,43.8s22.5,14.8,40.1,14.8,30.7-5,39.8-15,13.7-24.5,13.7-43.6V1167.6h40.1v133.7q0,45.5-23.9,69.5t-69.7,24C1211.1,1394.8,1187.7,1386.9,1171.8,1371Z"/><path d="M1381.5,1392V1167.6h41.1v190.6h104.7V1392Z"/><path d="M1739.6,1392l-22.6-52.5H1607.9l-22.6,52.5h-41.4l101.5-224.4h33.4L1780.4,1392Zm-118.4-84.4h82.1l-41-95.4Z"/><path d="M676.4,1631.7a86.8,86.8,0,0,1-35-37.2q-12.1-24.1-12.2-56.2t12.2-56a87.7,87.7,0,0,1,35-37.1q22.8-13,53.4-13a119.2,119.2,0,0,1,39.4,6.4c12.3,4.3,22.7,10.4,31.1,18.3l-12.6,27.6c-9.4-7.4-18.7-12.9-28-16.3a84.2,84.2,0,0,0-29.4-5.2q-30,0-46.3,19.4t-16.3,55.9c0,24.5,5.4,43.3,16.3,56.2s26.3,19.4,46.3,19.4a82,82,0,0,0,29.4-5.2c9.3-3.4,18.6-8.8,28-16.3l12.6,27.7a87.6,87.6,0,0,1-31.1,18.2,119.3,119.3,0,0,1-39.4,6.5Q699.2,1644.8,676.4,1631.7Z"/><path d="M835,1642.1V1434.8h38V1611h96.7v31.1Z"/><path d="M1010.9,1622.7q-22-22-22.1-64.4V1434.8h37.1v125.6c0,17.8,4.2,31.3,12.6,40.4s20.8,13.7,37.1,13.7,28.3-4.6,36.7-13.8,12.7-22.7,12.7-40.3V1434.8h37v123.5q0,42.2-22,64.3t-64.4,22.2C1047.1,1644.8,1025.6,1637.4,1010.9,1622.7Z"/><path d="M1361,1553.3c6.5,8.8,9.8,19.6,9.8,32.4q0,26.4-19,41.4t-52.1,15h-94.2V1434.8h91.2q32.4,0,50.7,14.3c12.3,9.5,18.4,22.8,18.4,39.8q0,16.5-8.7,28.5c-5.7,8.1-13.7,14-23.9,17.7C1345.1,1538.4,1354.4,1544.5,1361,1553.3Zm-118.4-31.2h47.9q39.1,0,39.1-29.1c0-9.8-3.2-17-9.7-21.7s-16.2-7.1-29.4-7.1h-47.9Zm82.9,83.3c6.3-4.9,9.4-12.6,9.4-23s-3.2-18.1-9.5-23.2-16.3-7.6-29.9-7.6h-52.9v61.1h52.9C1309.3,1612.7,1319.3,1610.3,1325.5,1605.4Z"/><path d="M1000,78.8c508.8,0,921.2,412.4,921.2,921.2s-412.4,921.2-921.2,921.2S78.8,1508.8,78.8,1000,491.2,78.8,1000,78.8m0-10.9c-249,0-483.1,96.9-659.1,273S67.9,751,67.9,1000s96.9,483.1,273,659.1,410.1,273,659.1,273,483.1-96.9,659.1-273,273-410.1,273-659.1-96.9-483.1-273-659.1S1249,67.9,1000,67.9Z"/><path d="M1000,38.4c256.9,0,498.4,100,680,281.6s281.6,423.1,281.6,680-100,498.4-281.6,680-423.1,281.6-680,281.6-498.4-100-680-281.6S38.4,1256.9,38.4,1000,138.4,501.6,320,320,743.1,38.4,1000,38.4M1000,0C447.7,0,0,447.7,0,1000S447.7,2000,1000,2000s1000-447.7,1000-1000S1552.3,0,1000,0Z"/><path d="M970.4,376c-10.1-8.6-21.5-14.8-36.1-15.3-4.9-.2-9.9-.1-14.7-.5a51.8,51.8,0,0,1-20.4-5.8c-3.5-1.9-14.6-7.7-13.2-13.2,2.4-9.5,5.9-14.3.4-23.1-7.4-11.7-15-14.5-26.4-20.7-4.7-2.5-7.4-7.5-12.1-10s-10.7-1.7-16.1.4-13.1,7.7-19.3,11.8a6.8,6.8,0,0,1-5.6,1.2c-13.3-3.1-21.8-13.2-35.4-16.4s-29.4-3.9-41.3-11.7c-10.1-6.7-16-18-24.4-26.7-11.1-11.3-26.3-15.1-40.7-1.9l-.9.8-.8.9c-13.2,14.4-9.4,29.6,2,40.6,8.6,8.5,20,14.3,26.7,24.5,7.7,11.9,8.3,27.4,11.6,41.3s13.3,22.1,16.4,35.4a6.8,6.8,0,0,1-1.1,5.6c-4.1,6.2-9.1,12.5-11.8,19.3s-2.9,11.5-.5,16,7.5,7.4,10.1,12.1c6.1,11.4,9,19.1,20.6,26.4,8.9,5.6,13.7,2.1,23.1-.4,5.5-1.4,11.3,9.7,13.3,13.3a49.6,49.6,0,0,1,5.7,20.3c.4,4.9.3,9.9.5,14.8.5,14.5,6.7,25.9,15.4,36,25,29.3,54.1,55.1,81.6,82,76.4,74.8,151.5,151.1,228.3,225.5,7.4,7.2,14.7,14.6,22.9,21.1,4.7,3.7,10.5,4.8,16.7,5,29.8.7,61-27.6,82.7-48.2,4.8-4.6,9.6-9.2,14.2-13.9s9.4-9.4,13.9-14.2c20.7-21.7,49-52.9,48.2-82.7-.2-6.2-1.3-12-5-16.8-6.4-8.2-13.8-15.4-21-22.9-74.5-76.8-150.8-151.8-225.6-228.3C1025.4,430.2,999.6,401.1,970.4,376Z"/><path d="M1336.6,245.8l-.8-.9-.9-.8c-14.4-13.2-29.6-9.4-40.7,1.9-8.4,8.7-14.3,20-24.4,26.7-11.9,7.8-27.4,8.3-41.3,11.7s-22.1,13.3-35.4,16.4a6.8,6.8,0,0,1-5.6-1.2c-6.2-4.1-12.5-9-19.3-11.8s-11.5-2.8-16.1-.4-7.4,7.5-12.1,10c-11.4,6.2-19,9-26.4,20.7-5.5,8.8-2,13.6.4,23.1,1.4,5.5-9.7,11.3-13.2,13.2a51.8,51.8,0,0,1-20.4,5.8c-4.8.4-9.8.3-14.7.5-14.6.5-26,6.7-36.1,15.3-7.4,6.4-14.7,13.1-21.8,19.9,10.7,10.6,21.1,21.5,31.2,32.1,6.9,7.3,14.1,14.7,21.1,22,33.3,34,67.5,68.3,100.5,101.5l22.7,22.8c7.3-7.6,14.5-15.3,21.3-23.3,8.7-10.1,14.9-21.5,15.4-36,.2-4.9.1-9.9.5-14.8a49.6,49.6,0,0,1,5.7-20.3c2-3.6,7.8-14.7,13.3-13.3,9.4,2.5,14.2,6,23.1.4,11.6-7.3,14.5-15,20.6-26.4,2.6-4.7,7.6-7.3,10.1-12.1s1.7-10.6-.5-16-7.7-13.1-11.8-19.3a6.8,6.8,0,0,1-1.1-5.6c3.1-13.3,13.1-21.8,16.4-35.4s3.9-29.4,11.6-41.3c6.7-10.2,18.1-16,26.7-24.5C1346,275.4,1349.8,260.2,1336.6,245.8Z"/><path d="M970.8,741.2c-33.2-33-67.5-67.1-101.5-100.4-7.2-7.1-14.7-14.2-21.9-21.1-10.2-9.7-20.6-19.6-30.7-29.8q-47.6,47.9-94.6,96c-7.2,7.5-14.6,14.7-21,22.9-3.7,4.8-4.8,10.6-5,16.8-.8,29.8,27.5,61,48.2,82.7,4.5,4.8,9.1,9.6,13.9,14.2s9.4,9.3,14.2,13.9c21.7,20.6,52.9,48.9,82.7,48.2,6.2-.2,12-1.3,16.7-5,8.2-6.5,15.5-13.9,22.9-21.1,32.8-31.7,65.2-63.8,97.5-95.9Z"/></svg>